<svg xmlns="http://www.w3.org/2000/svg" viewBox="0 0 32 32">
  <circle cx="16" cy="16" r="14" fill="#ffffff" stroke="#000000" stroke-width="1"/>
  <path d="M16 2 L20.5 7 L19 13 L16 11 L13 13 L11.5 7 Z" fill="#000000"/>
  <path d="M11.5 7 L5 9 L5 15 L9 17 L13 13 Z" fill="#000000"/>
  <path d="M20.5 7 L27 9 L27 15 L23 17 L19 13 Z" fill="#000000"/>
  <path d="M9 17 L7 23 L13 25 L16 21 L19 25 L25 23 L23 17 L19 19 L16 21 L13 19 Z" fill="#000000"/>
  <path d="M13 25 L16 30 L19 25" fill="#000000"/>
</svg>